<svg height="512" viewBox="0 0 1024 512" width="1024" xmlns="http://www.w3.org/2000/svg"><path d="m0 0h1024v512h-1024z" fill="#fff" stroke="#000" stroke-miterlimit="10"/><path d="m155.33 198.64h229.21v50.72h-229.21z" fill="#fff"/><path d="m381.04 202.14v43.72h-222.21v-43.72zm7-7h-236.21v57.72h236.21z" fill="#ffa300"/><path d="m397.39 198.64h229.21v50.72h-229.21z" fill="#fff"/><path d="m623.11 202.14v43.72h-222.21v-43.72zm7-7h-236.21v57.72h236.21z" fill="#ffa300"/><path d="m639.46 198.64h229.21v50.72h-229.21z" fill="#fff"/><path d="m865.18 202.14v43.72h-222.21v-43.72zm7-7h-236.21v57.72h236.21z" fill="#ffa300"/><path d="m397.39 264.52h229.21v50.72h-229.21z" fill="#fff"/><path d="m623.11 268.02v43.72h-222.21v-43.72zm7-7h-236.21v57.72h236.21z" fill="#ffa300"/><path d="m245.95 205.53v9.8h14.44v6.92h-14.44v13.4h16.32v6.72h-37.99v-6.72h14.4v-30.12h7.28z"/><path d="m276.83 236.8c6.72-5.44 9.4-15.16 10.56-19.92h-9.84v-6.56h10.96c.2-1.8.28-3.2.36-5.12l6.96.24c-.12 1.64-.24 3.12-.48 4.88h20.28v6.56h-21.44c-.2.96-.64 2.84-1 4.24h20.28v6.16h-9.32v9h11.44v6.36h-29.08v-5.8c-2.28 3.56-4 5.16-5.12 6.24zm20.4-.52v-9h-5.96c-1.92 5-3.64 7.8-4.4 9z"/><path d="m468.02 205.53v9.8h14.44v6.92h-14.44v13.4h16.32v6.72h-37.99v-6.72h14.4v-30.12h7.28z"/><path d="m515.18 243.52v-10.76h-7.4v1.48h-6.76v-22.84h14.16v-5.92h6.8v5.92h14.32v22.84h-6.8v-1.48h-7.52v10.76zm-7.4-25.72v8.56h7.4v-8.56zm14.2 0v8.56h7.52v-8.56z"/><path d="m539.1 236.6c3.76-.72 10.64-2.68 13.8-8.12h-13.24v-6.36h3.08v-13.12h12.52v-3.36h6.72v3.36h12.76v13.12h2.92v6.36h-13.52c1.4 2 3.96 5.68 14.24 8.32l-3.64 6.56c-7.36-2.2-12.92-6.12-15.96-11.68-2.84 4.92-8.24 9.28-16.24 11.76zm16.16-21.36h-6.04v6.88h5.88c.08-.56.16-1.16.16-1.96zm6.72 4.96c0 .76-.04 1.24-.12 1.92h6.36v-6.88h-6.24z"/><path d="m730.09 205.53v9.8h14.44v6.92h-14.44v13.4h16.32v6.72h-37.99v-6.72h14.4v-30.12h7.28z"/><path d="m799.88 216.72h-21.52c-1 2.48-1.84 4.04-2 4.36h20.96v22.32h-6.8v-1.72h-14.52v1.72h-6.76v-12.56c-2.04 2.12-3.64 3.4-5 4.44l-3.4-6.92c2.16-1.6 6.8-5.04 9.96-11.64h-9.24v-6.68h11.72c.52-2.16.72-3.48.92-4.84l7.6.2c-.36 1.64-.68 3.12-1.12 4.64h19.2zm-23.87 18.44h14.52v-7.68h-14.52z"/><path d="m468.02 271.41v9.8h14.44v6.92h-14.44v13.4h16.32v6.72h-37.99v-6.72h14.4v-30.12h7.28z"/><path d="m515.18 309.4v-10.76h-7.4v1.48h-6.76v-22.84h14.16v-5.92h6.8v5.92h14.32v22.84h-6.8v-1.48h-7.52v10.76zm-7.4-25.71v8.56h7.4v-8.56zm14.2 0v8.56h7.52v-8.56z"/><path d="m539.1 302.48c3.76-.72 10.64-2.68 13.8-8.12h-13.24v-6.36h3.08v-13.12h12.52v-3.36h6.72v3.36h12.76v13.12h2.92v6.36h-13.52c1.4 2 3.96 5.68 14.24 8.32l-3.64 6.56c-7.36-2.2-12.92-6.12-15.96-11.68-2.84 4.92-8.24 9.28-16.24 11.76zm16.16-21.35h-6.04v6.88h5.88c.08-.56.16-1.16.16-1.96zm6.72 4.96c0 .76-.04 1.24-.12 1.92h6.36v-6.88h-6.24z"/><g fill="none" stroke="#00cfff" stroke-miterlimit="10" stroke-width="2"><g opacity=".5"><path d="m150.07 116.83v4"/><path d="m150.07 129.07v226.64" stroke-dasharray="0 0 8.24 8.24"/><path d="m150.07 359.83v4"/></g><g opacity=".5"><path d="m391.29 116.83v4"/><path d="m391.29 129.07v226.64" stroke-dasharray="0 0 8.24 8.24"/><path d="m391.29 359.83v4"/></g><g opacity=".5"><path d="m873.73 116.83v4"/><path d="m873.73 129.07v226.64" stroke-dasharray="0 0 8.24 8.24"/><path d="m873.73 359.83v4"/></g><g opacity=".5"><path d="m632.51 116.83v4"/><path d="m632.51 129.07v226.64" stroke-dasharray="0 0 8.24 8.24"/><path d="m632.51 359.83v4"/></g><g opacity=".5"><path d="m77.19 187.56h4"/><path d="m89.25 187.56h802.68" stroke-dasharray="0 0 8.07 8.07"/><path d="m895.96 187.56h4"/></g><g opacity=".5"><path d="m77.19 257.31h4"/><path d="m89.25 257.31h802.68" stroke-dasharray="0 0 8.07 8.07"/><path d="m895.96 257.31h4"/></g><g opacity=".5"><path d="m77.19 327.05h4"/><path d="m89.25 327.05h802.68" stroke-dasharray="0 0 8.07 8.07"/><path d="m895.96 327.05h4"/></g></g><path d="m154.04 72.36v31.51h-7.24v-24.96h-6.48v-6.56h13.72z" fill="#00cfff"/><path d="m387.44 93.35c-2.08.24-3.36.6-3.36 2.96v1h21.16v6.56h-28.32v-6.28c0-3.04 0-9.6 7.8-10.52l10.24-1.2c2.32-.28 3.4-.68 3.4-3.36s-.88-3.92-6.8-3.92c-6.68 0-6.92.84-7 4.76h-7.04c0-6.72.36-11.32 13.48-11.32 8.32 0 14.48.56 14.48 10.08 0 4.08-1.04 6.16-2.44 7.4-2.56 2.24-4.88 2.52-5.88 2.64z" fill="#00cfff"/><path d="m626 92.63c-.04 4.6.48 4.96 8 4.96 3.2 0 6.44 0 6.44-3.6 0-3.4-2.56-3.4-4.32-3.4h-6.24v-5.68h6.24c1.72 0 3.84 0 3.84-3.04 0-3.2-2.4-3.24-7.04-3.24-6.32 0-6.32 1.48-6.32 4.2h-7.12c.16-8.88 3.12-10.8 13.92-10.8 6.36 0 9.24.6 11.24 2.48 1.8 1.68 2.44 4.24 2.44 6.36 0 1.04 0 5.08-3.8 6.52 1.4.52 4.4 1.72 4.4 7.36 0 8.4-6.2 9.44-13.8 9.44-13.32 0-15.08-2.72-15.08-11.56z" fill="#00cfff"/><path d="m885.48 72.36v19.08h4.8v6.56h-4.8v5.88h-7.16v-5.88h-18.28v-6.96l15.4-18.68zm-7.16 5.64-10.92 13.44h10.92z" fill="#00cfff"/><path d="m77.68 164.24v31.51h-7.24v-24.96h-6.48v-6.56h13.72z" fill="#00cfff"/><path d="m66.5 256c-2.08.24-3.36.6-3.36 2.96v1h21.16v6.56h-28.32v-6.28c0-3.04 0-9.6 7.8-10.52l10.24-1.2c2.32-.28 3.4-.68 3.4-3.36s-.88-3.92-6.8-3.92c-6.68 0-6.92.84-7 4.76h-7.04c0-6.72.36-11.32 13.48-11.32 8.32 0 14.48.56 14.48 10.08 0 4.08-1.04 6.16-2.44 7.4-2.56 2.24-4.88 2.52-5.88 2.64z" fill="#00cfff"/><path d="m63.02 326.04c-.04 4.6.48 4.96 8 4.96 3.2 0 6.44 0 6.44-3.6 0-3.4-2.56-3.4-4.32-3.4h-6.24v-5.68h6.24c1.72 0 3.84 0 3.84-3.04 0-3.2-2.4-3.24-7.04-3.24-6.32 0-6.32 1.48-6.32 4.2h-7.12c.16-8.88 3.12-10.8 13.92-10.8 6.36 0 9.24.6 11.24 2.48 1.8 1.68 2.44 4.24 2.44 6.36 0 1.04 0 5.08-3.8 6.52 1.4.52 4.4 1.72 4.4 7.36 0 8.4-6.2 9.44-13.8 9.44-13.32 0-15.08-2.72-15.08-11.56z" fill="#00cfff"/><g fill="#f00"><circle cx="632.27" cy="187.56" r="9.75"/><circle cx="873.28" cy="257.57" r="9.75"/><g stroke="#fff" stroke-miterlimit="10"><path d="m622.99 159.3v12.61h-2.9v-9.99h-2.59v-2.62z"/><path d="m635.2 159.3-5.04 12.61h-2.32l5.04-12.61z"/><path d="m639.18 167.42c-.02 1.84.19 1.99 3.2 1.99 1.28 0 2.58 0 2.58-1.44 0-1.36-1.02-1.36-1.73-1.36h-2.5v-2.27h2.5c.69 0 1.54 0 1.54-1.22 0-1.28-.96-1.3-2.82-1.3-2.53 0-2.53.59-2.53 1.68h-2.85c.06-3.55 1.25-4.32 5.57-4.32 2.54 0 3.7.24 4.5.99.72.67.98 1.7.98 2.54 0 .42 0 2.03-1.52 2.61.56.21 1.76.69 1.76 2.95 0 3.36-2.48 3.78-5.52 3.78-5.33 0-6.04-1.09-6.04-4.63z"/><path d="m860.72 280.78c-.83.1-1.34.24-1.34 1.18v.4h8.47v2.62h-11.33v-2.51c0-1.22 0-3.84 3.12-4.21l4.1-.48c.93-.11 1.36-.27 1.36-1.34s-.35-1.57-2.72-1.57c-2.67 0-2.77.34-2.8 1.91h-2.82c0-2.69.14-4.53 5.39-4.53 3.33 0 5.79.22 5.79 4.03 0 1.63-.42 2.47-.98 2.96-1.02.9-1.95 1.01-2.35 1.06z"/><path d="m876.38 272.38-5.04 12.61h-2.32l5.04-12.61z"/><path d="m887.34 272.38v7.64h1.92v2.62h-1.92v2.35h-2.87v-2.35h-7.32v-2.79l6.16-7.48h4.02zm-2.86 2.25-4.37 5.38h4.37z"/></g></g></svg>