<svg height="512" viewBox="0 0 1024 512" width="1024" xmlns="http://www.w3.org/2000/svg"><path d="m0 0h1024v512h-1024z" fill="#fff" stroke="#000" stroke-miterlimit="10"/><path d="m185.33 238.64h77.59v50.72h-77.59z" fill="#fff"/><path d="m259.41 242.14v43.72h-70.59v-43.72zm7-7h-84.59v57.72h84.59z" fill="#ffa300"/><path d="m282.1 238.64h611.03v50.72h-611.03z" fill="#fff"/><path d="m889.63 242.14v43.72h-604.03v-43.72zm7-7h-618.03v57.72h618.03z" fill="#ffa300"/><path d="m394.34 270.2c-.96 1.28-2.52 3.32-5.84 5.88.36.44.56.72.96.72 1.32 0 4-3.4 4.44-4l2.48 5.76c-.36.48-3.68 5-7.12 5s-5.08-2.08-6.36-4.12c-4.56 2.24-7.96 3.2-9.88 3.72l-2.68-5.96c3.12-.64 6.4-1.48 10.2-3.12-.44-1.48-.68-2.52-.96-4.16l-6.88.52-.16-5.48 6.24-.48c0-.24-.16-1.24-.16-1.48l-4.88.36-.16-5.2 4.6-.32c-.04-.32-.04-.44-.08-1.48l-5.48.44c-.76 14.32-3.52 21.28-10.04 27l-5.24-4.52c4.28-2.52 5.84-5.8 6.92-8.12-1.6-1.04-2.44-1.56-3.08-1.92-.36.6-.52.88-1 1.64l-3.2-6.88c2.6-4.16 3.16-9.2 3.28-11.16h-2.44v-6.4h15.84v4.6l4.2-.32c-.04-.92-.16-4.56-.16-5.24h6.72c0 1.08.04 1.44.12 4.72l3.36-.24c-1.12-2.08-1.72-2.76-2.32-3.56l5.32-1.44c1.12 1.24 2.92 4.16 3.08 4.44l-.4.12 1.56-.12.28 5.64-10.68.84c0 .32.04 1.04.04 1.44l9.6-.68.28 5.2-9.52.72c.08.88.08 1.04.16 1.44l10.12-.76.2 5.4-3.72.28zm-30.23-8.4c-.12.44-.24.92-.48 1.72 1.24.64 2.32 1.24 2.56 1.36.2-1.16.32-1.92.4-3.08zm8.32-8.96h-6.72c-.08.8-.16 1.44-.4 3.2h7.24zm13.39 16.56c.08.48.16.96.32 1.76.4-.32 1.4-1.12 2.12-1.92z"/><path d="m410.03 247.01c-.56 1.8-.84 3.24-1.44 7.08 2.52-2.48 5.32-3.88 8.8-3.88 4.2 0 10.88 2.44 10.88 14.92 0 7.36-1.84 17.72-23.92 17.6l-1.68-6.68c14.76-.04 18.2-3.28 18.2-11.32 0-2.32-.16-8.04-4.68-8.04-5 0-8.36 6.28-8.36 8.32 0 3.8.2 5.72.32 6.84l-7 .28c-.16-1.72-.28-3.72-.28-7.6s.12-11.08 1.48-17.84z"/><path d="m450.23 275.4c3.48-.28 12.8-1.08 12.8-11.8 0-5.56-2.92-9-7.96-9.52-.04.68-1.08 24.68-12.8 24.68-6.72 0-8.88-7.48-8.88-12.52 0-12.4 9.44-18.88 19.56-18.88 11.56 0 17.52 7.24 17.52 16.68 0 3.32-.8 9.4-5.76 13.72-3.84 3.4-10.08 4.16-12 4.4zm-10.08-9c0 1 .24 4.68 2.4 4.68 2.72 0 5-7.16 5.84-16.64-8.24 2.68-8.24 10.8-8.24 11.96z"/><path d="m479.23 257.6h-1.28v18.96h-4.16v-25.04h5.04v-5.92h5.96v5.92h4.48v21.68c0 2.76-1.72 3.24-2.84 3.24h-.96l-1.36-6.04v13.24h-4.88zm4.88 12.28c.48.04.8 0 .96-.12.16-.16.2-.48.2-.84v-11.32h-1.16zm27.15-23.15v5.4h-21.56v-5.4zm-1 17.71v19.2h-5.48v-1.4h-9.36v1.4h-5.52v-19.2zm-.72-11.16v10h-18.48v-10zm-14.11 15.68v2.32h2.32v-2.32zm0 6.16v2.48h2.32v-2.48zm1.16-17.84v1.88h7.2v-1.88zm5.83 11.68v2.32h2.36v-2.32zm0 6.16v2.48h2.36v-2.48z"/><path d="m549.94 254.88c-.88-.04-1.96-.08-3-.08-2.16 0-4 .16-5.92.76-5.16 1.6-11.8 7.68-11.8 13.16 0 3.96 3.68 4.96 4.64 5.16 2.68.52 7.16.76 9.92.76.96 0 1.32 0 2.8-.12l-.96 7.68c-9.64.04-13.52-.84-16.92-2.36s-6.8-5.04-6.8-10.4c0-3.84 1.48-9.12 8.56-13.92-2.52.28-13.68 1.32-15.96 1.6l-.36-7.64c1.6 0 21.8-1.24 25.92-1.36.96-.04 9.04-.28 9.68-.32zm-8.76 12.64c-.72-1.64-2.36-4.64-3.6-6.32l3.64-1.92c1.44 1.8 2.96 4.44 3.72 6.04zm5.68-3.12c-.84-1.76-2.4-4.44-3.68-5.96l3.6-1.92c1.72 1.92 3.04 4.36 3.68 5.64z"/><path d="m584.82 284.04c-.56-1.84-.72-2.4-1.04-3.24-5.76.8-15.52 1.64-22.16 2l-.76-5.44c-1.24 4.16-2.2 5.52-2.8 6.4l-5.36-4.96c2.4-3.64 3.16-8 3.16-12.36v-17.8h13.68v-3.2h6.84v3.2h14.72v6.28h-28.63v10.72c0 .52 0 4.8-1.32 10.68.12 0 2.92-.12 3.24-.16 2.2-5.24 4.88-14.68 6.08-20.28l7.08 1.2c-2.16 7.4-5.16 15.32-6.6 18.76 3.92-.16 7.48-.36 10.8-.76-1.32-3.16-2.12-5.08-4.12-8.52l5.48-2.8c4.48 7 7.4 15.48 8.12 17.48l-6.4 2.8z"/><path d="m609.15 246.85c-.04.36-.8 5.68-.92 6.48h3c7.92 0 9 5.52 9 11.04 0 1.08 0 11.2-2.72 14.72-2.44 3.16-5.2 3.16-6.88 3.16-2.68 0-4.4-.32-5.88-.6l-.24-6.68c1.72.28 3 .52 4.6.52 1.88 0 2.48-.88 2.8-1.36.96-1.6 1.52-6.6 1.52-9.84 0-2.52 0-4.44-3.52-4.44h-2.68c-2.76 13.52-4.8 18.16-6.96 22.36l-6.48-3.6c1.8-3 4.08-7.08 6.48-18.68l-5.56.04v-6.6h6.56c.4-3.12.52-5.24.64-7.04zm12.47 7.11c-.6-2.28-1.32-4.56-2.4-6.4l3.6-1c1.16 1.84 2.16 4.76 2.52 6.16zm1.84 17.48c-.04-9.4-1.36-12.92-2.76-15.52l6.36-1.88c1.08 1.88 3.24 5.8 3.8 16.72zm4.2-18.56c-.16-.56-1.24-3.88-2.64-6.16l3.56-.96c1.24 1.68 2.28 4.84 2.68 6.08z"/><path d="m661.79 247.45v5.44c-1.12.96-6.12 5.16-7.12 6 1.08-.28 2-.52 3.84-.52 6.28 0 10.44 4.4 10.44 10.92 0 5.12-2.8 8.44-5.28 9.96-2.68 1.64-6.08 3.04-15.6 3.04-3.08 0-4.32-.08-5.84-.2l-1-6.72c3.6.24 7.32.24 8 .24 4 0 12.24 0 12.24-6.2 0-4.96-4.92-4.96-5.92-4.96-5.24 0-8.12 2-9.4 3-1.24.92-6.4 6.12-7.32 7.24l-4.32-5.72c1.76-1.4 16.32-14.2 17.12-14.96l-13.84.24v-6.8z"/><path d="m677.27 276.2c8.56-.32 17.28-1 17.28-8.76 0-3.8-2.24-4.28-5.04-4.28-3.04 0-9.48 1.16-15.4 2.24l-1.16-7.36c14.4-1.48 15.64-1.48 17.12-1.48 3.6 0 12 0 12 10.76 0 13.92-14.64 15.12-22.6 15.48zm19.6-21.6c-5.44-1.56-15.48-2.6-19.64-2.56l.96-6.32c4.36.12 11.84.48 20.08 2.16z"/><path d="m722.31 247.01c-.04 1.76-.08 3.24-.08 5.24 0 4.08-.04 4.84.6 5.6.08.08.2.16.24.2 4.52-1.4 7.04-1.88 12.68-2.64l.88 7.4c-9.92.88-22.12 3.8-22.12 8.84 0 3.52 4.76 3.56 9.48 3.56 1.32 0 7.84 0 13.84-.72v7.2c-2.36.2-5.76.44-10.88.44-10.32 0-13.24-1.04-15.84-2.56-2.72-1.64-4.24-4.4-4.24-7.24 0-1.92.44-5.28 4.6-8.76 1.84-1.56 3.36-2.36 5.08-3.16-1.48-1.88-1.8-4.4-1.76-13.4z"/><path d="m760.71 246.37h7.2v3.6h10.24v6.4h-10.24v8.72c.24 1.16.52 2.36.52 4.2 0 4.12-1.64 8.4-5.08 10.56-1.96 1.24-5.28 2.68-12.8 2.96l-2.12-6.16c1.36 0 5.56.04 8.4-.6 3.32-.72 3.8-1.84 4.24-2.76-.76.48-1.64 1.04-3.56 1.04-3.48 0-7.96-2.68-7.96-8.12s4-8.4 8.68-8.4c1.24 0 2.08.24 2.76.44l-.04-1.88h-18.2v-6.4h18.04zm.52 19.07c-.08-.8-.28-2.6-2.6-2.6-.32 0-3 .12-3 3.24 0 .64.16 3.32 3.04 3.32 1.32 0 2.56-.8 2.56-2.72z"/><path d="m810.5 247.61v5.32c-2.12 1.68-5.44 4.36-7.56 6.04 1.08-.32 2.12-.36 3.28-.36 8.92 0 11.24 6.8 11.24 11.08 0 7.96-6.28 12.88-15.92 12.88-8.44 0-10.92-4.44-10.92-7.52 0-4.36 4.28-6.76 8.2-6.76 4.8 0 7.12 3.2 7.12 6.24 0 .56-.08.92-.2 1.52 3.84-1.12 4.36-4.48 4.36-5.56 0-.68 0-5.96-7.2-5.96-4.88 0-8.16 2.36-9.28 3.16-1.48 1.08-4.92 4.6-7.28 7l-3.56-6.56c1.4-1.16 7.52-6.2 8.76-7.24 1.28-1.08 6.88-5.84 8.04-6.84l-13.44.32v-6.76zm-9.47 28.35c0-.24 0-2.64-2.56-2.64-1.4 0-2.4.68-2.4 1.8 0 1.68 2.04 1.88 3.24 1.88.56 0 .92-.04 1.6-.2.08-.28.12-.52.12-.84z"/><g fill="none" opacity=".5" stroke="#00cfff" stroke-miterlimit="10" stroke-width="2"><path d="m180.07 156.83v4"/><path d="m180.07 169.07v226.64" stroke-dasharray="0 0 8.24 8.24"/><path d="m180.07 399.83v4"/></g><g fill="none" opacity=".5" stroke="#00cfff" stroke-miterlimit="10" stroke-width="2"><path d="m271.29 156.83v4"/><path d="m271.29 169.07v226.64" stroke-dasharray="0 0 8.24 8.24"/><path d="m271.29 399.83v4"/></g><g fill="none" opacity=".5" stroke="#00cfff" stroke-miterlimit="10" stroke-width="2"><path d="m903.73 156.83v4"/><path d="m903.73 169.07v226.64" stroke-dasharray="0 0 8.24 8.24"/><path d="m903.73 399.83v4"/></g><g fill="none" opacity=".5" stroke="#00cfff" stroke-miterlimit="10" stroke-width="2"><path d="m107.19 227.56h4"/><path d="m119.25 227.56h802.68" stroke-dasharray="0 0 8.07 8.07"/><path d="m925.96 227.56h4"/></g><g fill="none" opacity=".5" stroke="#00cfff" stroke-miterlimit="10" stroke-width="2"><path d="m107.19 297.31h4"/><path d="m119.25 297.31h802.68" stroke-dasharray="0 0 8.07 8.07"/><path d="m925.96 297.31h4"/></g><path d="m184.04 112.36v31.52h-7.24v-24.96h-6.48v-6.56z" fill="#00cfff"/><path d="m267.44 133.35c-2.08.24-3.36.6-3.36 2.96v1h21.16v6.56h-28.32v-6.28c0-3.04 0-9.6 7.8-10.52l10.24-1.2c2.32-.28 3.4-.68 3.4-3.36s-.88-3.92-6.8-3.92c-6.68 0-6.92.84-7 4.76h-7.04c0-6.72.36-11.32 13.48-11.32 8.32 0 14.48.56 14.48 10.08 0 4.08-1.04 6.16-2.44 7.4-2.56 2.24-4.88 2.52-5.88 2.64z" fill="#00cfff"/><path d="m896.68 132.63c-.04 4.6.48 4.96 8 4.96 3.2 0 6.44 0 6.44-3.6 0-3.4-2.56-3.4-4.32-3.4h-6.24v-5.68h6.24c1.72 0 3.84 0 3.84-3.04 0-3.2-2.4-3.24-7.04-3.24-6.32 0-6.32 1.48-6.32 4.2h-7.12c.16-8.88 3.12-10.8 13.92-10.8 6.36 0 9.24.6 11.24 2.48 1.8 1.68 2.44 4.24 2.44 6.36 0 1.04 0 5.08-3.8 6.52 1.4.52 4.4 1.72 4.4 7.36 0 8.4-6.2 9.44-13.8 9.44-13.32 0-15.08-2.72-15.08-11.56z" fill="#00cfff"/><path d="m107.68 204.24v31.51h-7.24v-24.96h-6.48v-6.56h13.72z" fill="#00cfff"/><path d="m96.5 296c-2.08.24-3.36.6-3.36 2.96v1h21.16v6.56h-28.32v-6.28c0-3.04 0-9.6 7.8-10.52l10.24-1.2c2.32-.28 3.4-.68 3.4-3.36s-.88-3.92-6.8-3.92c-6.68 0-6.92.84-7 4.76h-7.04c0-6.72.36-11.32 13.48-11.32 8.32 0 14.48.56 14.48 10.08 0 4.08-1.04 6.16-2.44 7.4-2.56 2.24-4.88 2.52-5.88 2.64z" fill="#00cfff"/><g fill="#f00"><circle cx="182.61" cy="227.56" r="9.75"/><circle cx="272.2" cy="297.57" r="9.75"/><path d="m173.33 199.3v12.61h-2.9v-9.99h-2.59v-2.62z" stroke="#fff" stroke-miterlimit="10"/><path d="m185.54 199.3-5.04 12.61h-2.32l5.04-12.61z" stroke="#fff" stroke-miterlimit="10"/><path d="m194.37 199.3v12.61h-2.9v-9.99h-2.59v-2.62z" stroke="#fff" stroke-miterlimit="10"/><path d="m259.64 320.78c-.83.1-1.34.24-1.34 1.18v.4h8.47v2.62h-11.33v-2.51c0-1.22 0-3.84 3.12-4.21l4.1-.48c.93-.11 1.36-.27 1.36-1.34s-.35-1.57-2.72-1.57c-2.67 0-2.77.34-2.8 1.91h-2.82c0-2.69.14-4.53 5.39-4.53 3.33 0 5.79.22 5.79 4.03 0 1.63-.42 2.47-.98 2.96-1.02.9-1.95 1.01-2.35 1.06z" stroke="#fff" stroke-miterlimit="10"/><path d="m275.31 312.38-5.04 12.61h-2.32l5.04-12.61z" stroke="#fff" stroke-miterlimit="10"/><path d="m280.68 320.78c-.83.1-1.34.24-1.34 1.18v.4h8.47v2.62h-11.33v-2.51c0-1.22 0-3.84 3.12-4.21l4.1-.48c.93-.11 1.36-.27 1.36-1.34s-.35-1.57-2.72-1.57c-2.67 0-2.77.34-2.8 1.91h-2.82c0-2.69.14-4.53 5.39-4.53 3.33 0 5.79.22 5.79 4.03 0 1.63-.42 2.47-.98 2.96-1.02.9-1.95 1.01-2.35 1.06z" stroke="#fff" stroke-miterlimit="10"/></g><path d="m354.47 133.49c12.8 0 14.56 2.96 14.56 16.36s-2.4 15.8-13.68 15.8c-12.08 0-14.96-1.44-14.96-16.08 0-12.96 2.28-16.08 14.08-16.08zm-6.87 16.19c0 9.36.48 9.44 7.56 9.44 6 0 6.68-.48 6.68-8.68 0-1.72-.08-7-.6-8.36-.68-1.88-2.92-2.04-6.52-2.04-6.64 0-7.12.2-7.12 9.64z"/><path d="m379.48 141.76.12 2.24c1.08-1.2 2.28-2.56 7.52-2.56 8.72 0 9.72 4.48 9.72 11.92 0 8.32-1.48 12.28-10.52 12.28-1.32 0-4.32 0-6.64-2.4v7.44h-6.6v-28.92zm.2 12.2c0 4.64.84 5.64 5.36 5.64 5.16 0 5.24-1.6 5.24-6.28 0-5.16-1-5.88-5.32-5.88-5 0-5.28 1.48-5.28 6.52z"/><path d="m407.67 141.76 4.52 8.04 4.44-8.04h7.8l-6.76 11.28 7.4 12.28h-7.8l-5.08-9.2-5.2 9.2h-7.8l7.6-12.44-6.96-11.12z"/><path d="m437.59 133.37c-1.12 6.44-1.56 13-1.56 19.56 0 8.04.64 11.92 1.04 14.24l-7.32.48c-.76-4.52-.96-9.08-.96-13.36 0-3.64.16-10.36 1.4-21.4zm10.68 18.19c-1.36 1.8-1.88 3.6-1.88 4.56 0 2.72 3.96 2.72 6.8 2.72 2.52 0 6.96-.2 9.44-.48l.12 7.16c-1.44.16-3.6.4-7.24.4-7.28 0-15.56-.56-15.56-8.44 0-.76 0-4.4 2.68-8.36zm13.72-15.99v6.88h-20.8v-6.88z"/><path d="m471.32 153c-.72.12-4.36.6-4.8.64l-.52-5.8c.4-.04 2-.08 2.56-.12.28-.4.56-.8 1.4-2.2-2.36-2.72-3.4-3.64-4.52-4.6l2.36-5.64c.32.24.52.44.84.68 1.48-3.2 1.72-3.92 2.08-5.04l5.24.84c-1.68 4.16-3.68 7.24-3.84 7.52.48.52.68.72.96 1.04 1.8-3.08 2.44-4.44 2.96-5.52l3.68 1.04v-2.24h8.64v-2.48h6.48v2.48h8.6v7.32h.52v5.4h-5.4c-.08.44-.36 1.4-.44 1.64h4.48v21.24h-5.84v-1.32h-2.92v1.32h-5.64v-21.24h3.88c.2-.52.36-1 .44-1.64h-4.48v-5.4h9.56v-1.8h-12.12v1l2.44.52c-.28 1.16-.56 2.64-1.2 4.72v23.84h-5.12v-13.68c-.08.16-.56.72-.72.96l-1-1.64c.12.76.68 5.68.76 8.96l-3.28.6c.08-1.96-.36-8.08-.48-9.4l2.76-.56-.72-1.16-1.44.52c-.08-.52-.16-.88-.28-1.64-.36.08-.88.16-1.16.2v16.84h-4.72zm-.92 2.08c-.04 3.28-.28 9.32-1.28 12.32l-3.64-3.24c.96-3.12 1.2-6.44 1.24-9.52zm9.31-12.84v-4.36c-1.76 3.24-4.28 7.12-6.12 9.56 1.2-.04 1.56-.08 2.68-.16-.28-.96-.44-1.64-.68-2.6l3.16-.96c.28.76.48 1.2 1.16 3.48.48-.96 1.44-2.84 2.12-4.96zm14.12 11.08v2.08h2.92v-2.08zm0 6.84v2.08h2.92v-2.08z"/><path d="m521.47 135.61v-3.2h7.04v3.2h11.88v6.04h-11.88v2.52h10.92v5.96h-10.92l.04 3.64c3.96 1.56 8.56 4.68 11.12 6.84l-4.44 6.44c-1.52-1.68-4.48-4.28-6.68-5.72l-.12.72c-.2 1.12-.32 2.28-1.92 3.6-1.16.96-3.08 2.16-7.24 2.16-7.8 0-11.04-4.16-11.04-7.72 0-4.28 3.92-8.08 11.16-8.08 1.16 0 1.56.08 2.08.2v-2.08h-13.16v-5.96h13.16v-2.52h-14v-6.04zm0 22.39c-1.68-.6-2.84-.6-3.04-.6-1.64 0-3.64.8-3.64 2.32 0 .44.28 2.16 3.64 2.16 3.04 0 3.04-1.6 3.04-2.08z"/><path d="m572.39 133.01v5.44c-1.12.96-6.12 5.16-7.12 6 1.08-.28 2-.52 3.84-.52 6.28 0 10.44 4.4 10.44 10.92 0 5.12-2.8 8.44-5.28 9.96-2.68 1.64-6.08 3.04-15.6 3.04-3.08 0-4.32-.08-5.84-.2l-1-6.72c3.6.24 7.32.24 8 .24 4 0 12.24 0 12.24-6.2 0-4.96-4.92-4.96-5.92-4.96-5.24 0-8.12 2-9.4 3-1.24.92-6.4 6.12-7.32 7.24l-4.32-5.72c1.76-1.4 16.32-14.2 17.12-14.96l-13.84.24v-6.8z"/><path d="m587.88 161.76c8.56-.32 17.28-1 17.28-8.76 0-3.8-2.24-4.28-5.04-4.28-3.04 0-9.48 1.16-15.4 2.24l-1.16-7.36c14.4-1.48 15.64-1.48 17.12-1.48 3.6 0 12 0 12 10.76 0 13.92-14.64 15.12-22.6 15.48zm19.59-21.6c-5.44-1.56-15.48-2.6-19.64-2.56l.96-6.32c4.36.12 11.84.48 20.08 2.16z"/><path d="m632.91 132.57c-.04 1.76-.08 3.24-.08 5.24 0 4.08-.04 4.84.6 5.6.08.08.2.16.24.2 4.52-1.4 7.04-1.88 12.68-2.64l.88 7.4c-9.92.88-22.12 3.8-22.12 8.84 0 3.52 4.76 3.56 9.48 3.56 1.32 0 7.84 0 13.84-.72v7.2c-2.36.2-5.76.44-10.88.44-10.32 0-13.24-1.04-15.84-2.56-2.72-1.64-4.24-4.4-4.24-7.24 0-1.92.44-5.28 4.6-8.76 1.84-1.56 3.36-2.36 5.08-3.16-1.48-1.88-1.8-4.4-1.76-13.4z"/><path d="m671.31 131.93h7.2v3.6h10.24v6.4h-10.24v8.72c.24 1.16.52 2.36.52 4.2 0 4.12-1.64 8.4-5.08 10.56-1.96 1.24-5.28 2.68-12.8 2.96l-2.12-6.16c1.36 0 5.56.04 8.4-.6 3.32-.72 3.8-1.84 4.24-2.76-.76.48-1.64 1.04-3.56 1.04-3.48 0-7.96-2.68-7.96-8.12s4-8.4 8.68-8.4c1.24 0 2.08.24 2.76.44l-.04-1.88h-18.2v-6.4h18.04zm.52 19.07c-.08-.8-.28-2.6-2.6-2.6-.32 0-3 .12-3 3.24 0 .64.16 3.32 3.04 3.32 1.32 0 2.56-.8 2.56-2.72z"/><path d="m721.11 133.17v5.32c-2.12 1.68-5.44 4.36-7.56 6.04 1.08-.32 2.12-.36 3.28-.36 8.92 0 11.24 6.8 11.24 11.08 0 7.96-6.28 12.88-15.92 12.88-8.44 0-10.92-4.44-10.92-7.52 0-4.36 4.28-6.76 8.2-6.76 4.8 0 7.12 3.2 7.12 6.24 0 .56-.08.92-.2 1.52 3.84-1.12 4.36-4.48 4.36-5.56 0-.68 0-5.96-7.2-5.96-4.88 0-8.16 2.36-9.28 3.16-1.48 1.08-4.92 4.6-7.28 7l-3.56-6.56c1.4-1.16 7.52-6.2 8.76-7.24 1.28-1.08 6.88-5.84 8.04-6.84l-13.44.32v-6.76zm-9.48 28.35c0-.24 0-2.64-2.56-2.64-1.4 0-2.4.68-2.4 1.8 0 1.68 2.04 1.88 3.24 1.88.56 0 .92-.04 1.6-.2.08-.28.12-.52.12-.84z"/><path d="m220.51 263.19 103.39-85.6h411.02" fill="none" stroke="#ffa300" stroke-miterlimit="10" stroke-width="3"/></svg>